<svg width="8" height="8" viewBox="0 0 8 8" fill="none" xmlns="http://www.w3.org/2000/svg">
<g opacity="0.8">
<path d="M6.01291 0.00683594C6.2958 0.0373296 6.51496 0.166788 6.67404 0.288086C6.838 0.413185 7.01042 0.587358 7.16721 0.744141L7.2551 0.833008C7.41181 0.989726 7.58604 1.16128 7.71115 1.3252C7.84993 1.50708 7.99923 1.76755 7.99924 2.1123C7.99919 2.45699 7.84991 2.71755 7.71115 2.89941C7.58605 3.06328 7.41177 3.23493 7.2551 3.3916L3.53635 7.11035C3.46478 7.18195 3.33207 7.32451 3.15842 7.42285C2.9846 7.52117 2.79357 7.5624 2.69553 7.58691L1.32443 7.92969C1.25633 7.94672 1.11912 7.98297 0.995331 7.99512C0.861395 8.00817 0.528772 8.01664 0.256073 7.74414C-0.0166334 7.47134 -0.00796644 7.13876 0.00509644 7.00488C0.0172244 6.88091 0.0534933 6.74389 0.0705261 6.67578L0.4133 5.30371C0.437812 5.20565 0.479066 5.01558 0.577362 4.8418L0.65744 4.71875C0.742081 4.60498 0.835253 4.51651 0.888885 4.46289L4.60764 0.744141C4.76434 0.587431 4.93689 0.413198 5.1008 0.288086C5.28253 0.1495 5.54282 0.000243906 5.88693 0L6.01291 0.00683594ZM1.43771 5.01172L1.31955 5.13281C1.29043 5.16527 1.26934 5.19332 1.25217 5.22363C1.21765 5.28471 1.19971 5.35435 1.16525 5.49219L0.822479 6.86426L0.776581 7.08008C0.77141 7.13295 0.778351 7.16947 0.803925 7.19531C0.829672 7.22106 0.866443 7.22869 0.919159 7.22363L1.13596 7.17773L2.50803 6.83398C2.57688 6.81677 2.62902 6.80394 2.67111 6.79102L2.77658 6.74805C2.80699 6.7308 2.83478 6.70899 2.8674 6.67969L2.98849 6.5625L6.40451 3.14551L4.85373 1.59473L1.43771 5.01172Z" fill="#F9F6F6"/>
</g>
</svg>
